<?xml version="1.0" encoding="UTF-8" standalone="no"?>
<!-- Created with Inkscape (http://www.inkscape.org/) -->
<svg
   xmlns:dc="http://purl.org/dc/elements/1.1/"
   xmlns:cc="http://creativecommons.org/ns#"
   xmlns:rdf="http://www.w3.org/1999/02/22-rdf-syntax-ns#"
   xmlns:svg="http://www.w3.org/2000/svg"
   xmlns="http://www.w3.org/2000/svg"
   xmlns:sodipodi="http://sodipodi.sourceforge.net/DTD/sodipodi-0.dtd"
   xmlns:inkscape="http://www.inkscape.org/namespaces/inkscape"
   id="svg2439"
   sodipodi:version="0.32"
   inkscape:version="0.46"
   width="34.559021"
   height="46.705059"
   version="1.0"
   sodipodi:docname="favicon.svg"
   inkscape:output_extension="org.inkscape.output.svg.inkscape">
  <metadata
     id="metadata2444">
    <rdf:RDF>
      <cc:Work
         rdf:about="">
        <dc:format>image/svg+xml</dc:format>
        <dc:type
           rdf:resource="http://purl.org/dc/dcmitype/StillImage" />
      </cc:Work>
    </rdf:RDF>
  </metadata>
  <defs
     id="defs2442">
    <inkscape:perspective
       sodipodi:type="inkscape:persp3d"
       inkscape:vp_x="0 : 526.18109 : 1"
       inkscape:vp_y="0 : 1000 : 0"
       inkscape:vp_z="744.09448 : 526.18109 : 1"
       inkscape:persp3d-origin="372.04724 : 350.78739 : 1"
       id="perspective2446" />
  </defs>
  <sodipodi:namedview
     inkscape:window-height="684"
     inkscape:window-width="640"
     inkscape:pageshadow="2"
     inkscape:pageopacity="0.0"
     guidetolerance="10.0"
     gridtolerance="10.0"
     objecttolerance="10.0"
     borderopacity="1.0"
     bordercolor="#666666"
     pagecolor="#ffffff"
     id="base"
     showgrid="false"
     inkscape:zoom="0.43711187"
     inkscape:cx="372.04724"
     inkscape:cy="-22.877439"
     inkscape:window-x="428"
     inkscape:window-y="179"
     inkscape:current-layer="svg2439" />
  <g
     id="g3214"
     transform="matrix(45.009344,0,0,45.009344,-362.13251,-322.00308)"
     inkscape:export-filename="/home/ido/mnt/yzhvpn2/tunnelking-svn/img/favicon.png"
     inkscape:export-xdpi="129"
     inkscape:export-ydpi="129">
    <g
       id="XMLID_5_"
       transform="matrix(2.6540574e-2,0,0,2.436101e-2,8.1924541,7.7846033)">
      <g
         id="g4"
         transform="matrix(1,0,0,1.3721371,0,-9.3034277e-2)">
        <path
           style="fill:#ffffff"
           id="path6"
           d="M 15.8,10.334 C 15.8,10.815 15.8,11.298 15.8,11.778 C 14.892,11.778 13.983,11.778 13.076,11.778 C 13.097,11.305 13.033,10.759 13.107,10.334 C 14.005,10.334 14.903,10.334 15.8,10.334 z" />
        <path
           style="fill:#ffffff"
           id="path8"
           d="M 15.8,8.39 C 15.8,8.862 15.8,9.334 15.8,9.806 C 14.892,9.806 13.983,9.806 13.076,9.806 C 13.097,9.343 13.033,8.806 13.107,8.39 C 14.005,8.39 14.903,8.39 15.8,8.39 z" />
        <path
           style="fill:#ffffff"
           id="path10"
           d="M 15.8,6.473 C 15.8,6.954 15.8,7.436 15.8,7.917 C 14.892,7.917 13.983,7.917 13.076,7.917 C 13.097,7.445 13.033,6.899 13.107,6.473 C 14.005,6.473 14.903,6.473 15.8,6.473 z" />
        <path
           style="fill:#ffffff"
           id="path12"
           d="M 12.596,5.223 C 12.424,4.944 12.256,4.664 12.017,4.446 C 12.671,3.817 13.392,3.247 14.038,2.613 C 14.639,3.083 15.237,3.554 15.768,4.085 C 14.701,4.454 13.666,4.854 12.596,5.223 z" />
        <path
           style="fill:#ffffff"
           id="path14"
           d="M 13.685,2.223 C 13.04,2.859 12.323,3.432 11.665,4.056 C 11.398,3.87 11.154,3.664 10.863,3.501 C 11.252,2.561 11.678,1.652 12.081,0.722 C 12.629,1.211 13.137,1.733 13.685,2.223 z" />
        <path
           style="fill:#ffffff"
           id="path16"
           d="M 15.768,4.5 C 15.843,4.945 15.78,5.51 15.8,6 C 14.849,6 13.898,6 12.946,6 C 12.882,5.908 12.86,5.778 12.817,5.667 C 13.812,5.288 14.779,4.884 15.768,4.5 z" />
        <path
           style="fill:#ffffff"
           id="path18"
           d="M 10.414,3.278 C 10.129,3.166 9.839,3.055 9.517,2.972 C 9.639,2.235 9.73,1.471 9.838,0.722 C 10.414,0.722 10.991,0.722 11.569,0.722 C 11.206,1.594 10.792,2.42 10.414,3.278 z" />
        <path
           style="fill:#ffffff"
           id="path20"
           d="M 9.356,0.722 C 9.214,1.336 9.15,2.193 9.003,2.89 C 8.567,2.822 8.132,2.843 7.657,2.862 C 7.58,2.106 7.409,1.407 7.336,0.722 C 8.009,0.722 8.684,0.722 9.356,0.722 z" />
        <path
           style="fill:#ffffff"
           id="path22"
           d="M 7.08,2.973 C 6.762,3.058 6.43,3.132 6.183,3.278 C 5.699,2.484 5.363,1.562 4.9,0.75 C 5.456,0.686 6.151,0.741 6.759,0.722 C 6.856,1.541 7.007,2.163 7.08,2.973 z" />
        <path
           style="fill:#ffffff"
           id="path24"
           d="M 4.868,4.056 C 4.229,3.442 3.491,2.915 2.879,2.278 C 3.406,1.845 3.92,1.401 4.419,0.945 C 4.876,1.753 5.239,2.641 5.669,3.473 C 5.441,3.701 5.14,3.865 4.868,4.056 z" />
        <path
           style="fill:#ffffff"
           id="path26"
           d="M 0.827,4.112 C 0.692,4.116 0.828,4.07 0.827,4.029 C 0.874,4.013 0.906,3.986 0.924,3.946 C 1.019,3.907 1.054,3.817 1.149,3.779 C 1.274,3.647 1.413,3.527 1.565,3.418 C 1.845,3.188 2.113,2.948 2.399,2.724 C 2.41,2.686 2.456,2.679 2.463,2.64 C 3.174,3.227 3.865,3.832 4.515,4.473 C 4.27,4.686 4.13,4.991 3.938,5.25 C 2.88,4.889 1.847,4.506 0.827,4.112 z" />
        <path
           style="fill:#ffffff"
           id="path28"
           d="M 0.764,11.779 C 0.785,11.306 0.721,10.76 0.796,10.335 C 1.694,10.335 2.59,10.335 3.489,10.335 C 3.489,10.816 3.489,11.299 3.489,11.779 C 2.581,11.779 1.672,11.779 0.764,11.779 z" />
        <path
           style="fill:#ffffff"
           id="path30"
           d="M 0.764,9.806 C 0.785,9.343 0.721,8.806 0.796,8.39 C 1.694,8.39 2.59,8.39 3.489,8.39 C 3.489,8.862 3.489,9.334 3.489,9.806 C 2.581,9.806 1.672,9.806 0.764,9.806 z" />
        <path
           style="fill:#ffffff"
           id="path32"
           d="M 0.764,7.917 C 0.785,7.446 0.721,6.9 0.796,6.473 C 1.694,6.473 2.59,6.473 3.489,6.473 C 3.489,6.954 3.489,7.436 3.489,7.917 C 2.581,7.917 1.672,7.917 0.764,7.917 z" />
        <path
           style="fill:#ffffff"
           id="path34"
           d="M 3.713,5.778 C 3.666,5.82 3.662,5.9 3.65,5.973 C 2.751,6.037 1.715,5.982 0.764,6 C 0.764,5.528 0.764,5.056 0.764,4.583 C 0.79,4.578 0.794,4.594 0.796,4.611 C 1.33,4.769 1.787,4.994 2.303,5.167 C 2.536,5.27 2.777,5.367 3.04,5.445 C 3.232,5.584 3.581,5.587 3.713,5.778 z" />
        <path
           id="path36"
           d="M 15.8,9.806 C 15.8,9.334 15.8,8.862 15.8,8.39 C 14.903,8.39 14.005,8.39 13.108,8.39 C 13.034,8.806 13.097,9.343 13.077,9.806 C 13.983,9.806 14.892,9.806 15.8,9.806 z M 15.8,11.779 C 15.8,11.299 15.8,10.816 15.8,10.335 C 14.903,10.335 14.005,10.335 13.108,10.335 C 13.034,10.761 13.097,11.307 13.077,11.779 C 13.983,11.779 14.892,11.779 15.8,11.779 z M 15.8,7.917 C 15.8,7.436 15.8,6.954 15.8,6.473 C 14.903,6.473 14.005,6.473 13.108,6.473 C 13.034,6.9 13.097,7.446 13.077,7.917 C 13.983,7.917 14.892,7.917 15.8,7.917 z M 15.8,6 C 15.779,5.509 15.843,4.945 15.768,4.5 C 14.779,4.883 13.812,5.287 12.818,5.667 C 12.861,5.779 12.882,5.909 12.947,6 C 13.898,6 14.849,6 15.8,6 z M 7.08,2.973 C 7.007,2.163 6.856,1.541 6.759,0.723 C 6.151,0.741 5.456,0.686 4.9,0.75 C 5.363,1.562 5.699,2.484 6.183,3.278 C 6.43,3.132 6.762,3.058 7.08,2.973 z M 4.515,4.473 C 3.865,3.832 3.174,3.227 2.463,2.64 C 2.456,2.679 2.41,2.686 2.399,2.723 C 2.113,2.948 1.845,3.188 1.565,3.417 C 1.413,3.526 1.274,3.646 1.149,3.778 C 1.054,3.816 1.019,3.906 0.924,3.945 C 0.906,3.985 0.874,4.012 0.827,4.028 C 0.828,4.069 0.692,4.116 0.827,4.111 C 1.847,4.506 2.88,4.889 3.938,5.25 C 4.13,4.991 4.27,4.686 4.515,4.473 z M 0.25,4 C 1.666,2.753 3.068,1.496 4.483,0.25 C 7.069,0.25 9.656,0.25 12.241,0.25 C 13.566,1.501 14.929,2.717 16.281,3.945 C 16.281,6.714 16.281,9.482 16.281,12.25 C 10.936,12.25 5.594,12.25 0.249,12.25 C 0.25,9.5 0.25,6.75 0.25,4 z M 11.666,4.056 C 12.323,3.431 13.041,2.859 13.686,2.223 C 13.138,1.734 12.63,1.212 12.082,0.723 C 11.68,1.653 11.253,2.561 10.864,3.502 C 11.155,3.664 11.399,3.87 11.666,4.056 z M 2.879,2.278 C 3.491,2.914 4.228,3.442 4.867,4.056 C 5.14,3.865 5.441,3.701 5.669,3.473 C 5.239,2.641 4.876,1.753 4.419,0.945 C 3.92,1.401 3.406,1.845 2.879,2.278 z M 9.003,2.89 C 9.15,2.193 9.214,1.336 9.356,0.722 C 8.684,0.722 8.009,0.722 7.336,0.722 C 7.409,1.407 7.58,2.106 7.657,2.862 C 8.132,2.843 8.567,2.822 9.003,2.89 z M 12.017,4.445 C 12.256,4.663 12.424,4.944 12.596,5.222 C 13.665,4.854 14.7,4.453 15.768,4.083 C 15.237,3.552 14.638,3.081 14.038,2.611 C 13.392,3.247 12.671,3.816 12.017,4.445 z M 0.796,6.473 C 0.721,6.9 0.785,7.446 0.764,7.917 C 1.672,7.917 2.58,7.917 3.489,7.917 C 3.489,7.436 3.489,6.954 3.489,6.473 C 2.59,6.473 1.694,6.473 0.796,6.473 z M 3.65,5.973 C 3.662,5.9 3.666,5.82 3.713,5.778 C 3.581,5.587 3.232,5.584 3.04,5.445 C 2.777,5.368 2.536,5.271 2.303,5.167 C 1.787,4.994 1.33,4.769 0.796,4.612 C 0.794,4.595 0.791,4.579 0.764,4.584 C 0.764,5.056 0.764,5.528 0.764,6.001 C 1.715,5.982 2.751,6.037 3.65,5.973 z M 9.516,2.973 C 9.838,3.056 10.128,3.166 10.413,3.279 C 10.792,2.421 11.205,1.594 11.568,0.723 C 10.99,0.723 10.413,0.723 9.837,0.723 C 9.729,1.471 9.638,2.235 9.516,2.973 z M 0.796,8.39 C 0.721,8.806 0.785,9.343 0.764,9.806 C 1.672,9.806 2.58,9.806 3.489,9.806 C 3.489,9.334 3.489,8.862 3.489,8.39 C 2.59,8.39 1.694,8.39 0.796,8.39 z M 0.796,10.334 C 0.721,10.76 0.785,11.306 0.764,11.778 C 1.672,11.778 2.58,11.778 3.489,11.778 C 3.489,11.298 3.489,10.815 3.489,10.334 C 2.59,10.334 1.694,10.334 0.796,10.334 z" />
      </g>
      <g
         id="g38" />
    </g>
    <path
       style="fill:#f4ff00;fill-opacity:1;fill-rule:evenodd;stroke:#000000;stroke-width:0.02px;stroke-linecap:butt;stroke-linejoin:miter;stroke-opacity:1"
       id="path2418"
       d="M 8.1695843,7.8286849 C 8.1725691,7.6764643 8.1188441,7.4473871 8.0770581,7.3667997 C 8.0404989,7.2962927 8.2270402,7.5779685 8.2270402,7.5779685 C 8.2386026,7.5000379 8.227226,7.4371251 8.2543141,7.2456963 C 8.2543141,7.2456963 8.3277744,7.5749838 8.3322515,7.5794609 C 8.3367286,7.583938 8.4307472,7.2123405 8.4307472,7.2123405 L 8.4837259,7.5936383 C 8.5352141,7.4926116 8.571575,7.3682964 8.6011777,7.2493633 C 8.5843048,7.3725193 8.5934605,7.4900219 8.5889373,7.6025925 L 8.7784669,7.3168057 C 8.6829499,7.5080646 8.6712749,7.6677692 8.6434084,7.8271925 L 8.1695843,7.8286849 z" />
    <path
       style="fill:#ff0003;fill-opacity:1"
       id="path2420"
       transform="matrix(2e-2,0,0,2e-2,8.2395795,7.8062696)"
       d="M -6.4098595,-22.085423 C -6.4098595,-21.178795 -7.1448266,-20.443828 -8.0514546,-20.443828 C -8.9580825,-20.443828 -9.6930496,-21.178795 -9.6930496,-22.085423 C -9.6930496,-22.992051 -8.9580825,-23.727018 -8.0514546,-23.727018 C -7.1448266,-23.727018 -6.4098595,-22.992051 -6.4098595,-22.085423 z" />
    <path
       style="fill:#ff0003;fill-opacity:1"
       id="path2422"
       transform="matrix(2e-2,0,0,2e-2,8.41139,7.6837378)"
       d="M -6.4098595,-22.085423 C -6.4098595,-21.178795 -7.1448266,-20.443828 -8.0514546,-20.443828 C -8.9580825,-20.443828 -9.6930496,-21.178795 -9.6930496,-22.085423 C -9.6930496,-22.992051 -8.9580825,-23.727018 -8.0514546,-23.727018 C -7.1448266,-23.727018 -6.4098595,-22.992051 -6.4098595,-22.085423 z" />
    <path
       style="fill:#ff0003;fill-opacity:1"
       id="path2424"
       transform="matrix(2e-2,0,0,2e-2,8.594761,7.6286789)"
       d="M -6.4098595,-22.085423 C -6.4098595,-21.178795 -7.1448266,-20.443828 -8.0514546,-20.443828 C -8.9580825,-20.443828 -9.6930496,-21.178795 -9.6930496,-22.085423 C -9.6930496,-22.992051 -8.9580825,-23.727018 -8.0514546,-23.727018 C -7.1448266,-23.727018 -6.4098595,-22.992051 -6.4098595,-22.085423 z" />
    <path
       style="fill:#ff0003;fill-opacity:1"
       id="path2426"
       transform="matrix(2e-2,0,0,2e-2,8.7678747,7.6891195)"
       d="M -6.4098595,-22.085423 C -6.4098595,-21.178795 -7.1448266,-20.443828 -8.0514546,-20.443828 C -8.9580825,-20.443828 -9.6930496,-21.178795 -9.6930496,-22.085423 C -9.6930496,-22.992051 -8.9580825,-23.727018 -8.0514546,-23.727018 C -7.1448266,-23.727018 -6.4098595,-22.992051 -6.4098595,-22.085423 z" />
    <path
       style="fill:#ff0003;fill-opacity:1"
       id="path2428"
       transform="matrix(2e-2,0,0,2e-2,8.9417345,7.7525447)"
       d="M -6.4098595,-22.085423 C -6.4098595,-21.178795 -7.1448266,-20.443828 -8.0514546,-20.443828 C -8.9580825,-20.443828 -9.6930496,-21.178795 -9.6930496,-22.085423 C -9.6930496,-22.992051 -8.9580825,-23.727018 -8.0514546,-23.727018 C -7.1448266,-23.727018 -6.4098595,-22.992051 -6.4098595,-22.085423 z" />
  </g>
</svg>
